<svg width="528" height="315" viewBox="0 0 528 315" fill="none" xmlns="http://www.w3.org/2000/svg">
<path d="M240.51 302.984C232.891 302.984 225.272 302.984 217.653 302.984C217.672 302.952 217.695 302.921 217.709 302.887C223.259 289.256 226.373 274.781 230.299 260.637C230.646 259.388 227.696 259.774 227.379 260.918C223.502 274.886 220.45 289.207 214.969 302.668C214.921 302.785 214.904 302.887 214.898 302.983C205.848 302.983 196.798 302.983 187.749 302.983C187.969 302.842 188.141 302.658 188.223 302.432C194.448 285.234 199.938 267.749 207.088 250.899C212.844 237.333 223.882 230.827 237.034 228.92C241.954 228.626 247.603 228.394 249.691 228.312C253.697 234.192 257.789 242.82 265.219 244.177C273.984 245.778 274.354 234.939 274.318 228.88C285.074 229.585 295.811 231.435 302.681 240.665C305.023 243.811 306.799 247.289 308.353 250.894C308.303 251.054 308.37 251.181 308.513 251.275C311.041 257.216 312.996 263.48 315.889 269.166C315.913 269.213 315.947 269.25 315.978 269.291C311.646 276.537 307.314 283.782 302.943 291.004C301.672 293.105 300.385 295.196 299.096 297.286C288.88 297.291 278.663 297.252 268.449 297.098C263.115 297.018 257.784 296.748 252.452 296.657C249.662 296.609 246.217 296.683 243.894 298.532C243.203 299.083 240.599 302.438 241.556 302.223C240.978 302.352 240.643 302.65 240.51 302.984Z" fill="#FFC107"/>
<path d="M277.003 166.384C276.082 165.49 278.827 164.352 279.673 165.171C283.491 168.871 295.568 176.528 289.027 182.62C288.203 183.388 285.358 183.137 286.648 181.934C291.928 177.017 280.061 169.349 277.003 166.384ZM284.695 193.418C283.386 194.012 282.126 193.68 280.954 192.939C279.868 192.252 277.328 193.737 278.721 194.617C280.987 196.049 283.534 196.249 285.98 195.138C286.507 194.9 287.098 194.22 286.665 193.639C286.22 193.044 285.28 193.153 284.695 193.418ZM272.277 178.357C272.704 178.059 273.108 177.328 272.467 176.99C271.381 176.417 270.529 175.523 269.669 174.665C269.163 174.159 268.325 174.237 267.72 174.516C267.316 174.702 266.493 175.382 267.004 175.892C267.98 176.867 268.975 177.917 270.207 178.567C270.853 178.907 271.693 178.765 272.277 178.357ZM287.716 168.595C288.371 168.945 289.194 168.841 289.79 168.407C290.225 168.09 290.608 167.307 289.96 166.961C289.052 166.476 288.611 165.537 288.167 164.65C287.854 164.025 286.672 164.241 286.206 164.461C285.609 164.742 285.19 165.27 285.509 165.906C286.041 166.969 286.628 168.014 287.716 168.595ZM262.823 166.397C259.507 167.592 257.461 170.093 257.388 173.667C257.377 174.209 260.268 173.79 260.286 172.89C260.335 170.444 261.426 168.034 263.85 167.16C264.021 167.097 265.15 166.606 264.698 166.271C264.229 165.922 263.296 166.227 262.823 166.397ZM279.62 160.504C280.178 160.426 281.058 160.173 281.281 159.575C281.591 158.744 281.988 158.543 282.756 158.531C283.401 158.522 284.26 158.306 284.677 157.768C285.094 157.227 284.323 157.017 283.919 157.023C281.777 157.054 279.215 157.778 278.395 159.979C278.171 160.581 279.35 160.543 279.62 160.504ZM464.766 304.572C440.589 304.572 416.412 304.572 392.234 304.572C391.87 304.789 391.495 304.927 391.109 304.967C390.678 305.011 390.398 304.977 390.228 304.9C341.06 304.9 291.892 304.9 242.725 304.9C242.254 304.9 241.929 304.769 241.722 304.573C220.471 304.573 199.22 304.573 177.968 304.573C179.296 307.242 179.879 310.199 179.292 313.121C179.095 314.101 176.688 314.563 176.402 313.743C176.184 313.808 176.001 313.848 175.891 313.848C156.724 313.848 137.557 313.848 118.391 313.848C118.174 313.848 118.065 313.819 118.022 313.773C117.933 313.748 117.881 313.714 117.887 313.668C118.212 311.311 119.094 309.215 120.36 307.369C120.135 307.449 119.92 307.498 119.746 307.498C111.746 307.498 103.746 307.498 95.7455 307.498C93.7975 307.498 95.9785 306.06 96.9275 306.06C104.928 306.06 112.928 306.06 120.928 306.06C121.097 306.06 121.225 306.074 121.335 306.094C122.572 304.622 124.058 303.33 125.73 302.242C125.736 302.238 125.746 302.235 125.751 302.231C125.134 301.114 125.115 299.643 125.401 298.432C126.753 292.714 132.231 289.883 137.828 290.685C138.27 290.748 138.53 290.909 138.661 291.114C140.636 289.96 142.831 289.138 145.096 288.702C147.122 288.311 145.755 289.627 144.578 289.854C141.44 290.458 138.528 292.352 136.577 294.881C135.623 296.119 134.764 297.498 134.289 299.001C134.068 299.696 133.297 301.039 134.93 301.043C136.183 300.908 137.28 300.463 138.22 299.705C138.76 299.326 141.672 298.996 140.454 299.85C138.1 301.498 135.375 302.549 132.564 302.165C130.968 303.357 128.512 304.59 126.666 303.275C126.655 303.267 126.647 303.256 126.636 303.248C123.613 305.604 121.41 308.844 120.823 312.708C139.375 312.708 157.927 312.708 176.477 312.708C177.311 306.086 171.706 298.615 165.206 296.946C163.654 299.398 161.181 301.078 157.959 301.286C155.247 301.461 152.009 300.27 150.964 297.723C149.288 299.712 146.832 301.321 144.181 301.252C141.769 301.191 140.044 299.672 140.542 297.099C141.802 290.596 150.401 284.895 156.959 286.465C158.434 285.602 160.028 285.022 161.59 284.844C168.879 284.012 172.128 291.755 172.286 297.889C172.286 297.899 172.281 297.909 172.28 297.918C174.227 299.325 175.915 301.133 177.178 303.159C177.435 303.053 177.692 302.983 177.907 302.983C180.464 302.983 183.02 302.983 185.577 302.983C185.387 302.789 185.314 302.504 185.453 302.122C188.36 294.092 191.105 286.004 193.937 277.946C193.555 278 193.203 277.978 192.986 277.828C179.803 268.673 180.242 249.212 186.593 236.169C189.874 229.431 194.678 224.928 200.321 220.143C205.5 215.749 213.044 209.87 211.81 202.108C211.081 197.515 208.688 193.336 207.351 188.897C205.921 184.151 204.999 179.448 205 174.477C205.003 166.473 208.415 157.476 214.911 152.57C217.772 150.409 221.246 149.27 224.231 147.317C228.124 144.769 229.22 141.96 231.205 138.082C233.317 133.951 236.977 132.951 241.413 133.011C241.419 133.011 241.422 133.012 241.427 133.012C256.931 128.413 277.702 124.341 289.993 137.923C295.181 143.654 298.48 151.236 304.595 156.114C311.685 161.771 323.007 158.997 328.819 166.69C338.672 179.732 331.926 200.706 321.396 211.225C315.005 217.609 309.533 224.484 312.603 234.078C314.656 240.49 316.81 245.741 311.341 250.759C313.535 255.904 315.389 261.23 317.764 266.297C322.042 259.136 326.314 251.97 330.618 244.823C332.073 242.407 333.877 237.546 336.221 235.495C341.784 226.302 351.913 226.212 361.721 227.272C370.668 228.238 379.783 227.953 388.772 228.007C398.953 228.07 409.133 228.094 419.315 228.098C423.488 228.1 434.066 227.498 434.124 232.618C434.509 232.696 434.643 232.888 434.148 233.236C434.13 233.249 434.096 233.295 434.072 233.325C433.966 233.983 433.715 234.72 433.273 235.553C433.15 235.786 432.823 235.971 432.432 236.103C432.295 236.348 432.168 236.572 432.078 236.727C430.247 239.833 428.439 242.954 426.634 246.076C421.618 254.746 416.629 263.43 411.625 272.107C407.065 280.013 402.513 287.925 397.883 295.792C397.023 297.252 395.652 300.751 393.906 302.985C417.906 302.985 441.906 302.985 465.908 302.985C467.865 302.984 465.812 304.572 464.766 304.572ZM154.902 287.931C150.49 287.172 144.89 291.327 143.725 295.493C143.387 296.703 142.937 299.38 144.857 299.645C146.631 299.89 148.113 298.054 148.994 296.768C149.228 296.426 149.971 296.179 150.634 296.115C150.628 295.954 150.619 295.794 150.629 295.624C150.801 292.717 152.533 289.947 154.902 287.931ZM169.175 296.118C168.651 292.397 167.11 288.3 163.734 286.668C159.357 284.552 153.042 290.548 153.538 295.302C153.792 297.735 155.668 299.878 158.22 300.045C160.609 300.201 162.116 298.401 163.019 296.344C162.829 296.077 163.021 295.711 163.382 295.408C163.607 294.763 163.781 294.118 163.907 293.522C164.065 292.77 166.927 292.3 166.77 293.034C166.618 293.755 166.403 294.446 166.138 295.106C167.17 295.331 168.187 295.671 169.175 296.118ZM128.647 301.347C129.204 302.004 130.259 301.054 130.866 300.576C130.964 300.499 131.071 300.441 131.181 300.391C132.044 297.319 133.864 294.763 136.231 292.805C132.709 292.535 129.277 294.287 128.4 297.997C128.164 298.999 127.909 300.476 128.647 301.347ZM240.51 302.984C240.644 302.65 240.98 302.352 241.556 302.223C240.599 302.438 243.202 299.082 243.894 298.532C246.217 296.683 249.662 296.609 252.452 296.657C257.784 296.749 263.113 297.018 268.448 297.098C278.663 297.252 288.88 297.291 299.095 297.286C300.384 295.196 301.669 293.104 302.941 291.004C307.312 283.782 311.645 276.537 315.977 269.291C315.945 269.25 315.913 269.213 315.889 269.166C312.996 263.48 311.04 257.217 308.512 251.275C308.367 251.181 308.302 251.054 308.352 250.894C306.798 247.29 305.022 243.812 302.68 240.665C295.81 231.435 285.073 229.585 274.316 228.88C274.353 234.939 273.983 245.777 265.217 244.177C257.786 242.82 253.697 234.192 249.691 228.312C247.603 228.394 241.954 228.626 237.034 228.92C223.882 230.826 212.844 237.332 207.088 250.899C199.938 267.749 194.448 285.234 188.223 302.432C188.141 302.658 187.969 302.842 187.749 302.983C196.799 302.983 205.849 302.983 214.898 302.983C214.904 302.886 214.921 302.785 214.969 302.668C220.45 289.207 223.502 274.886 227.379 260.918C227.696 259.774 230.646 259.388 230.299 260.637C226.373 274.781 223.259 289.256 217.709 302.887C217.695 302.921 217.672 302.952 217.653 302.984C225.272 302.984 232.891 302.984 240.51 302.984ZM240.527 134.815C240.732 134.891 240.859 134.948 240.859 134.948C240.859 134.948 241.097 134.86 241.551 134.708C241.503 134.723 241.454 134.736 241.405 134.751C241.051 134.857 240.765 134.858 240.527 134.815ZM391.128 302.67C391.596 301.916 392.061 301.16 392.518 300.399C392.816 299.903 393.104 299.4 393.401 298.903C367.713 298.925 342.027 299.382 316.341 299.487C311.132 299.508 305.922 299.522 300.712 299.528C300.008 300.749 299.204 301.913 298.318 302.657C329.195 302.657 360.073 302.657 390.95 302.657C391.014 302.657 391.068 302.666 391.128 302.67ZM243.965 302.657C261.235 302.657 278.504 302.657 295.773 302.657C296.059 302.384 296.547 302.136 297.066 302.09C295.35 302.239 295.448 303.059 296.421 301.564C296.858 300.89 297.286 300.211 297.712 299.531C288.525 299.534 279.34 299.5 270.154 299.369C264.707 299.292 259.259 299.197 253.817 298.973C250.445 298.833 245.806 298.334 244.226 302.076C244.141 302.275 244.054 302.468 243.965 302.657ZM271.41 228.671C270.902 228.537 270.838 228.21 271.026 227.865C269.842 218.002 276.023 213.654 283.297 210.037C287.191 207.435 294.104 203.845 297.881 201.933C312.979 188.964 297.113 165.165 286.471 154.264C286.25 154.038 286.883 153.635 287.604 153.38C287.555 153.317 287.526 153.279 287.526 153.279C287.526 153.279 287.512 153.282 287.501 153.286C275.458 158.534 259.821 158.515 246.98 154.925C253.286 168.845 263.844 189.707 246.735 199.695C246.442 199.866 245.985 199.943 245.55 199.937C244.959 200.108 244.32 200.131 243.995 199.851C243.564 199.478 243.095 199.132 242.55 198.945C242.468 198.917 242.406 198.906 242.356 198.9C242.259 198.963 242.133 199.064 241.996 199.245C241.725 199.601 241.492 199.984 241.308 200.393C240.412 202.384 240.245 204.856 240.552 206.995C240.805 208.75 241.416 211.23 243.284 211.947C245.401 212.76 248.487 209.125 249.842 207.569C249.876 207.529 249.921 207.502 249.957 207.465C250.058 207.302 250.27 207.159 250.542 207.044C250.808 206.91 251.095 206.826 251.396 206.794C252.1 206.657 252.787 206.67 252.789 206.889C252.823 213.41 253.175 219.907 252.289 226.389C252.269 226.528 252.178 226.648 252.043 226.754C255.298 231.348 257.987 236.602 262.346 240.273C271.134 247.675 271.472 234.627 271.41 228.671ZM243.55 213.772C243.905 213.79 244.287 213.727 244.691 213.587C244.314 213.681 243.934 213.746 243.55 213.772ZM316.887 272.171C312.275 279.88 307.674 287.597 302.984 295.26C302.685 295.748 302.324 296.471 301.911 297.285C306.379 297.279 310.848 297.267 315.315 297.25C341.694 297.143 368.073 296.671 394.451 296.656C394.546 296.656 394.63 296.666 394.715 296.676C395.618 295.143 396.53 293.613 397.428 292.076C402.394 283.566 407.31 275.026 412.229 266.488C416.818 258.524 421.395 250.552 426.013 242.605C427.378 240.255 428.98 235.747 431.138 233.565C431.278 228.162 418.454 229.457 414.283 229.453C405.759 229.443 397.236 229.425 388.712 229.372C381.271 229.326 373.824 229.307 366.384 229.088C356.635 228.803 345.237 225.183 339.174 234.897C339.367 234.999 339.363 235.169 338.98 235.432C338.661 235.651 337.293 238.159 336.771 239.014C335.081 241.784 333.407 244.564 331.737 247.346C326.772 255.614 321.836 263.896 316.887 272.171ZM239.68 134.557C239.876 134.606 240.055 134.656 240.21 134.705C240.132 134.66 240.062 134.612 240.011 134.55C239.899 134.551 239.789 134.553 239.68 134.557ZM106.897 170.53C105.459 176.159 102.548 180.413 99.4245 185.214C95.9225 190.6 95.0525 195.762 95.9955 202.076C96.5005 205.45 97.3695 209.194 95.4005 212.253C93.8775 214.618 90.7185 215.372 88.0155 215.775C85.7635 216.407 83.2985 216.647 81.5435 215.244C78.4395 212.763 78.3455 208.051 77.3055 204.515C75.1235 197.091 70.3845 194.479 64.2725 190.579C60.0335 187.874 56.4575 184.365 54.2595 179.784C46.1965 162.97 53.3835 138.546 73.0285 134.29C73.0865 134.277 73.1315 134.282 73.1855 134.273C73.3595 134.13 73.5715 134 73.8695 133.911C94.8865 127.636 111.874 151.044 106.897 170.53ZM93.2575 203.91C93.1905 203.461 93.1225 203.007 93.0555 202.548C92.9645 202.586 92.8905 202.633 92.7825 202.661C89.7475 203.448 86.7125 204.237 83.6775 205.024C81.8975 205.486 81.3915 203.616 83.1755 203.153C86.2105 202.366 89.2455 201.577 92.2805 200.79C92.4765 200.739 92.6515 200.727 92.8155 200.727C92.6485 199.329 92.5445 197.914 92.5795 196.515C87.9875 197.707 83.3955 198.899 78.8045 200.091C79.8745 202.526 80.5335 205.067 81.1875 207.75C81.4035 208.633 81.6315 209.447 81.8895 210.188C84.2525 209.575 86.6155 208.961 88.9775 208.348C89.2715 208.272 90.4345 207.99 90.5695 208.491C90.7025 208.99 89.5565 209.335 89.2625 209.411C86.9405 210.015 84.6165 210.618 82.2945 211.22C83.1525 213.139 84.3775 214.302 86.4825 214.294C86.6915 214.176 86.9295 214.087 87.1925 214.053C93.8465 213.19 94.0895 209.481 93.2575 203.91ZM74.3355 135.647C73.9925 135.75 73.7175 135.747 73.4805 135.704C73.4565 135.71 73.4415 135.72 73.4155 135.725C55.8055 139.541 49.5395 163.117 56.6805 178.006C59.1405 183.136 62.7775 187.035 67.7335 189.867C71.0465 191.759 74.9925 193.65 77.1425 196.97C77.4045 197.375 77.6465 197.783 77.8745 198.194C82.8365 196.906 87.7985 195.618 92.7605 194.329C92.8245 193.919 92.9015 193.509 93.0015 193.105C95.0605 184.851 102.233 179.269 103.981 170.817C107.527 153.653 94.6505 129.583 74.3355 135.647ZM41.0705 170.287C37.6565 171.174 34.2425 172.06 30.8285 172.946C29.0575 173.406 29.5245 175.133 31.2915 174.675C34.7055 173.789 38.1195 172.902 41.5335 172.016C43.3045 171.555 42.8375 169.829 41.0705 170.287ZM45.7345 187.651C43.3625 190.649 40.9935 193.648 38.6215 196.645C37.8385 197.635 40.7495 197.384 41.3105 196.674C43.6825 193.676 46.0515 190.678 48.4235 187.68C49.2075 186.69 46.2965 186.941 45.7345 187.651ZM40.3445 152.792C41.1365 153.311 43.7105 152.144 43.0495 151.71C39.9995 149.713 36.9505 147.715 33.9015 145.716C33.1095 145.197 30.5355 146.364 31.1965 146.798C34.2445 148.795 37.2945 150.793 40.3445 152.792ZM116.656 152.549C120.07 151.662 123.484 150.776 126.898 149.889C128.675 149.428 128.19 147.635 126.418 148.096C123.004 148.982 119.59 149.867 116.176 150.754C114.398 151.216 114.884 153.009 116.656 152.549ZM118.557 168.973C117.791 168.608 115.51 169.805 115.825 169.955C119.063 171.498 122.302 173.04 125.54 174.581C126.307 174.945 128.587 173.748 128.272 173.599C125.033 172.058 121.795 170.516 118.557 168.973ZM113.917 124.675C111.883 127.992 109.849 131.311 107.813 134.628C107.024 135.913 109.967 135.782 110.549 134.833C112.584 131.516 114.619 128.198 116.653 124.88C117.442 123.594 114.498 123.726 113.917 124.675ZM127.505 231.489C113.508 235.191 99.5225 238.943 85.5455 242.723C71.5065 246.52 57.4725 250.334 43.4635 254.24C38.4935 255.626 33.5255 257.012 28.5725 258.46C27.0735 258.898 25.5735 259.331 24.0855 259.803C23.9475 259.847 23.7395 259.933 23.5225 260.024C23.4685 260.411 23.3745 260.759 23.1965 261.015C22.6095 261.857 19.6705 262.036 20.4775 260.876C20.5165 260.819 20.5445 260.73 20.5655 260.622C20.2035 260.624 20.0025 260.563 20.2005 260.413C20.3375 260.309 20.4695 260.233 20.6105 260.16C20.6395 259.069 20.3485 257.161 20.2845 256.421C17.9175 229.076 13.4595 201.816 9.57152 174.658C7.48052 160.059 5.35651 145.465 3.16051 130.882C2.45551 126.204 1.74952 121.526 1.00752 116.853C0.731515 115.114 0.693519 112.994 0.0565186 111.333C-0.158481 110.772 0.593518 110.269 1.39052 110.101C1.40452 110.094 1.41352 110.087 1.42752 110.081C8.03652 106.903 16.1555 105.61 23.1705 103.654C38.0715 99.5006 52.9985 95.4396 67.9325 91.4066C82.4665 87.4806 97.0055 83.5766 111.565 79.7426C116.11 78.5466 120.655 77.3466 125.211 76.1946C126.853 75.7796 128.972 74.8736 130.703 75.0686C130.816 75.0726 130.9 75.1226 130.955 75.2156C130.955 75.2176 130.955 75.2206 130.955 75.2226C130.949 75.3576 130.857 75.4766 130.717 75.5836C130.822 75.6616 130.906 75.7606 130.955 75.8886C131.499 77.3276 131.511 79.1746 131.732 80.6816C135.744 107.998 139.23 135.403 142.684 162.794C144.52 177.354 146.339 191.917 147.913 206.507C148.406 211.081 148.906 215.66 149.235 220.25C149.314 221.354 149.825 223.656 149.461 225.047C149.656 225.045 149.85 225.047 150.036 225.068C150.149 225.072 150.233 225.122 150.288 225.215C150.288 225.217 150.288 225.22 150.288 225.222C150.268 225.646 149.449 225.935 148.685 226.064C148.278 226.255 147.737 226.362 147.275 226.359C147.122 226.397 146.946 226.441 146.722 226.496C145.225 226.866 143.731 227.247 142.237 227.632C137.322 228.899 132.413 230.191 127.505 231.489ZM128.056 76.0006C128.054 76.0546 128.091 76.0886 128.146 76.1126C128.151 76.1056 128.158 76.0996 128.162 76.0936C128.095 76.0716 128.054 76.0416 128.056 76.0006ZM87.2655 241.407C101.8 237.481 116.339 233.577 130.898 229.743C135.443 228.547 139.988 227.347 144.544 226.195C145.123 226.049 145.764 225.841 146.424 225.642C146.443 225.609 146.453 225.579 146.478 225.543C146.767 225.129 146.449 222.627 146.391 221.781C144.528 194.648 140.349 167.552 136.841 140.599C134.925 125.874 132.974 111.154 130.947 96.4446C130.295 91.7126 129.641 86.9796 128.95 82.2546C128.694 80.5016 128.689 78.3396 128.055 76.6656C128.012 76.5516 128.014 76.4406 128.043 76.3336C127.873 76.3756 127.66 76.4286 127.388 76.4956C125.891 76.8656 124.397 77.2466 122.903 77.6316C117.987 78.8986 113.078 80.1906 108.17 81.4876C94.1725 85.1896 80.1875 88.9416 66.2105 92.7216C52.1715 96.5186 38.1375 100.333 24.1285 104.239C19.1585 105.625 14.1905 107.011 9.23752 108.459C7.73852 108.897 6.23851 109.33 4.75051 109.802C4.22651 109.969 2.69152 110.739 3.47552 110.143C3.35752 110.233 3.12952 110.317 2.85852 110.39C2.89652 110.44 2.93052 110.494 2.95452 110.555C3.59052 112.215 3.62952 114.336 3.90452 116.076C8.25752 143.573 12.1465 171.151 15.9745 198.724C17.9775 213.155 19.9655 227.592 21.7065 242.058C22.2505 246.579 22.8015 251.106 23.1815 255.645C23.2435 256.385 23.5095 257.687 23.5635 258.878C29.5815 256.541 36.4515 255.341 42.5035 253.653C57.4055 249.501 72.3325 245.44 87.2655 241.407ZM243.053 53.3806C239.094 39.0556 250.401 25.6926 264.786 25.6286C264.974 25.5506 265.184 25.4966 265.415 25.4866C279.688 24.8676 292.615 39.0746 287.223 53.4546C285.676 57.5796 283.099 60.5456 279.734 63.3156C275.655 66.6736 273.585 70.0576 273.428 75.3666C273.242 81.5956 270.469 83.8146 264.508 83.4876C262.517 83.5646 260.348 83.3016 259.359 81.7196C257.921 79.4196 258.254 76.7936 257.898 74.2046C256.599 64.7456 245.557 62.4436 243.053 53.3806ZM270.504 75.4456C270.453 75.4506 270.402 75.4596 270.35 75.4606C267.859 75.5026 265.37 75.5456 262.878 75.5886C260.901 75.6216 261.555 73.6056 263.165 73.5766C265.656 73.5336 268.146 73.4916 270.638 73.4486C270.638 73.4486 270.641 73.4486 270.643 73.4486C270.71 72.7376 270.803 72.0166 270.953 71.3086C267.446 71.3686 263.938 71.4276 260.431 71.4886C260.895 73.7956 260.845 76.2446 261.322 78.1726C263.361 78.1376 265.4 78.1026 267.44 78.0676C267.752 78.0626 268.62 78.1556 268.155 78.6556C267.713 79.1326 266.85 79.3666 266.223 79.3786C264.738 79.4036 263.253 79.4296 261.769 79.4546C262.271 80.4956 263.085 81.2646 264.484 81.5836C264.618 81.5596 264.752 81.5456 264.88 81.5566C270.33 82.0136 270.32 79.1696 270.504 75.4456ZM247.248 55.7296C250.317 61.0896 257.435 63.6996 259.799 69.3686C263.742 69.3016 267.687 69.2326 271.631 69.1666C271.798 68.7876 271.983 68.4166 272.207 68.0686C275.572 62.8746 281.82 60.3586 284.09 54.3056C288.897 41.4866 278.991 26.7656 265.092 27.3676C264.711 27.3846 264.434 27.3276 264.24 27.2236C264.143 27.2436 264.052 27.2556 263.966 27.2546C250.248 27.1316 240.282 43.5636 247.248 55.7296ZM225.928 46.7216C228.731 46.6736 231.532 46.6246 234.334 46.5756C235.891 46.5486 236.641 44.6686 234.658 44.7026C231.855 44.7516 229.054 44.8006 226.252 44.8486C224.694 44.8756 223.945 46.7556 225.928 46.7216ZM237.649 56.9216C236.927 56.7866 236.178 57.0546 235.599 57.4706C233.324 59.1076 231.05 60.7456 228.775 62.3816C228.266 62.7476 228.487 63.2596 229.038 63.3616C229.76 63.4966 230.509 63.2286 231.088 62.8126C233.363 61.1766 235.637 59.5386 237.912 57.9016C238.421 57.5366 238.201 57.0256 237.649 56.9216ZM236.055 33.5216C236.759 34.1326 239.435 33.0266 238.76 32.4416C236.644 30.6036 234.525 28.7696 232.406 26.9356C231.702 26.3246 229.026 27.4316 229.701 28.0156C231.82 29.8516 233.939 31.6856 236.055 33.5216ZM186.561 100.982C186.548 100.95 186.537 100.919 186.537 100.881C186.537 70.0726 186.537 39.2656 186.537 8.45658C185.058 8.38258 186.803 7.36358 187.723 7.20858C188.327 7.02558 188.991 7.00058 189.282 7.18758C240.165 7.18758 291.049 7.18758 341.932 7.18758C342.377 7.18758 342.59 7.25758 342.655 7.36158C343.513 6.97058 344.768 6.92158 344.768 7.43758C344.768 38.3266 344.768 69.2146 344.768 100.104C344.768 100.91 343.055 101.397 342.264 101.223C341.811 101.52 341.099 101.798 340.704 101.798C289.371 101.798 238.039 101.798 186.705 101.798C185.555 101.798 185.91 101.348 186.561 100.982ZM340.704 8.46458C290.281 8.46458 239.859 8.46458 189.435 8.46458C189.435 39.0106 189.435 69.5576 189.435 100.104C189.435 100.255 189.37 100.394 189.265 100.521C240.132 100.521 291 100.521 341.868 100.521C341.868 69.7516 341.868 38.9836 341.868 8.21458C341.868 8.17558 341.881 8.13958 341.889 8.10258C341.476 8.30658 341.001 8.46458 340.704 8.46458ZM176.953 107.538C176.953 72.3616 176.953 37.1866 176.953 2.01258C175.702 1.64258 176.328 0.00458527 177.786 0.00458527C235.481 0.00458527 293.177 0.00458527 350.872 0.00458527C351.456 0.00458527 351.81 0.190578 351.982 0.447578C352.803 -0.124422 354.447 -0.152416 354.447 0.909584C354.447 36.2856 354.447 71.6626 354.447 107.04C354.447 107.958 352.651 108.471 351.878 107.967C351.492 108.393 350.749 108.811 350.188 108.811C292.492 108.811 234.797 108.811 177.102 108.811C175.806 108.81 176.205 108.053 176.953 107.538ZM350.604 2.08758C293.686 2.08758 236.769 2.08758 179.851 2.08758C179.851 36.9866 179.851 71.8876 179.851 106.787C179.851 106.887 179.813 106.98 179.755 107.069C236.933 107.069 294.109 107.069 351.288 107.069C351.378 107.069 351.449 107.076 351.523 107.084C351.523 71.9956 351.523 36.9076 351.523 1.81959C351.28 1.98059 350.97 2.08758 350.604 2.08758ZM290.527 59.9126C292.041 58.2676 293.69 56.6596 295.361 55.0376C295.414 54.7346 295.725 54.4676 296.134 54.2856C302.441 48.1496 308.753 41.7226 308.706 32.3986C308.699 31.1176 311.632 30.6626 311.639 32.1686C311.686 41.7356 305.256 48.4706 298.862 54.7606C304.496 57.8036 313.615 56.8136 317.694 61.8836C322.104 67.3656 322.199 74.6216 323.906 81.1936C324.255 81.2266 324.385 81.3526 324.022 81.6186C324.109 81.9346 324.194 82.2516 324.289 82.5636C324.588 83.5496 321.699 84.3536 321.391 83.3386C321.388 83.3286 321.385 83.3176 321.383 83.3086C318.385 85.1856 315.382 87.0376 312.82 89.5166C312.315 90.0066 309.561 90.3316 310.194 89.7196C310.389 89.5306 310.595 89.3566 310.796 89.1726C310.63 89.1546 310.483 89.1096 310.367 89.0326C305.107 85.5216 299.072 81.7816 295.527 76.4086C294.019 74.1246 294.482 71.3136 295.187 68.8356C296.324 64.8386 297.114 61.3076 296.113 57.4636C292.756 60.7746 289.159 64.3876 287.523 68.8656C285.25 75.0886 287.401 80.9776 290.836 86.3166C291.646 87.5766 288.879 88.6706 288.18 87.5846C281.845 77.7366 282.635 68.4866 290.527 59.9126ZM300.107 57.6326C303.068 62.0006 306.41 66.0986 309.352 70.4806C309.346 69.5786 311.873 68.8846 312.289 69.8946C313.095 71.8506 313.549 74.5406 311.435 75.8406C309.079 77.2896 306.573 75.8946 304.831 74.1996C304.562 73.9386 304.779 73.5356 304.999 73.3366C305.573 72.8156 306.299 72.3596 307.085 72.2106C304.755 68.6266 302.127 65.2556 299.608 61.8056C299.544 62.7946 299.391 63.7966 299.122 64.8226C298.388 67.6236 296.409 71.8176 297.902 74.6476C300.886 80.3066 307.483 84.0876 312.647 87.5346C312.665 87.5466 312.673 87.5576 312.689 87.5696C315.324 85.5176 318.215 83.8286 321.031 82.0116C319.531 75.8506 319.595 67.5586 315.001 63.0146C311.245 59.2986 305.279 59.2016 300.107 57.6326ZM308.647 74.0076C308.984 74.2506 309.339 74.4636 309.729 74.6076C309.755 74.6176 309.781 74.6236 309.809 74.6286C309.971 74.3136 310.054 73.9686 310.075 73.6106C309.626 73.7996 309.14 73.9556 308.647 74.0076ZM479.676 134.095C476.691 138.685 472.748 141.663 468.014 144.303C461.991 147.662 458.944 151.475 457.51 158.197C455.957 165.476 452.201 167.828 445.346 166.294C442.775 165.985 439.999 165.207 439.056 162.808C437.737 159.454 439.067 155.767 439.121 152.308C439.299 140.854 426.686 135.587 425.195 124.372C422.657 105.284 440.383 89.6476 458.914 93.2866C458.935 93.2916 458.949 93.2976 458.97 93.3026C459.14 93.2666 459.311 93.2546 459.475 93.2766C477.81 95.6586 490.387 117.622 479.676 134.095ZM456.51 152.272C451.66 151.473 446.812 150.676 441.962 149.878C441.987 150.161 442.022 150.438 442.033 150.732C442.129 153.341 441.465 155.897 441.406 158.495C441.404 158.612 441.414 158.717 441.414 158.829C441.439 158.831 441.467 158.829 441.488 158.833C444.259 159.288 447.029 159.743 449.801 160.198C451.322 160.448 448.657 161.614 447.953 161.499C445.832 161.15 443.711 160.802 441.59 160.454C442.035 162.446 443.299 163.56 445.069 164.178C445.305 164.132 445.531 164.125 445.719 164.178C446.404 164.369 447.185 164.602 447.984 164.776C448.397 164.819 448.82 164.855 449.256 164.879C449.557 164.896 449.755 164.949 449.887 165.024C451.326 165.045 452.63 164.581 453.324 162.978C453.95 161.532 454.264 160.02 454.594 158.486C454.69 158.038 454.789 157.596 454.895 157.161C454.609 157.282 454.295 157.342 453.992 157.292C450.826 156.772 447.659 156.251 444.493 155.73C442.551 155.411 444.161 153.499 445.523 153.722C448.689 154.243 451.855 154.764 455.021 155.284C455.156 155.306 455.271 155.338 455.374 155.374C455.682 154.31 456.053 153.279 456.51 152.272ZM458.415 95.1666C458.002 95.1126 457.762 94.9876 457.639 94.8286C457.45 94.8656 457.273 94.8776 457.137 94.8506C437.599 91.0136 419.569 114.533 431.193 132.052C434.816 137.514 440.006 141.326 441.573 147.537C441.594 147.539 441.616 147.537 441.637 147.541C446.965 148.417 452.293 149.294 457.622 150.172C457.757 149.952 457.886 149.733 458.031 149.516C459.85 146.802 462.883 145.016 465.665 143.464C470.395 140.827 474.908 137.889 477.496 132.936C485.566 117.492 475.928 97.4436 458.415 95.1666ZM527.953 86.0836C527.49 87.2926 527.449 88.8186 527.245 90.0846C522.954 116.763 519.219 143.542 515.482 170.302C513.414 185.113 511.369 199.93 509.542 214.773C508.938 219.681 508.336 224.593 507.873 229.517C507.781 230.495 507.253 233.203 507.313 234.753C507.513 234.86 507.698 234.977 507.866 235.105C508.038 235.236 507.846 235.457 507.496 235.668C507.506 235.685 507.512 235.708 507.522 235.723C508.163 236.644 505.353 237.593 504.824 236.834C504.625 236.548 504.518 236.156 504.473 235.712C502.884 234.916 500.358 234.566 498.826 234.117C493.967 232.698 489.094 231.329 484.217 229.97C469.96 225.996 455.677 222.109 441.389 218.245C427.165 214.4 412.936 210.578 398.69 206.815C393.877 205.544 389.062 204.274 384.241 203.038C382.809 202.671 381.378 202.303 379.941 201.952C379.565 201.861 378.071 201.685 378.415 201.588C378.023 201.595 377.733 201.517 377.725 201.333C377.725 201.331 377.725 201.329 377.725 201.326C377.708 200.977 378.075 200.745 378.509 200.589C378.332 199.407 378.66 197.79 378.721 196.903C380.586 169.77 384.765 142.674 388.273 115.72C390.19 100.995 392.141 86.2756 394.168 71.5656C394.82 66.8346 395.474 62.1016 396.165 57.3756C396.422 55.6226 396.426 53.4606 397.06 51.7866C397.091 51.7036 397.146 51.6276 397.208 51.5546C397.113 51.4206 397.053 51.2576 397.043 51.0586C397.043 51.0566 397.043 51.0536 397.043 51.0516C397.008 50.3296 398.108 49.9486 398.641 49.8886C400.37 49.6936 402.685 50.7396 404.318 51.1556C409.083 52.3726 413.84 53.6236 418.596 54.8786C433.326 58.7676 448.04 62.7146 462.747 66.6916C477.523 70.6876 492.296 74.7016 507.038 78.8256C511.862 80.1756 516.688 81.5226 521.49 82.9486C523.102 83.4276 525.577 83.7276 526.96 84.7816C527.29 85.0326 527.378 85.3096 527.31 85.5736C527.766 85.5956 528.078 85.7536 527.953 86.0836ZM525.027 86.5896C524.917 86.5546 524.811 86.5096 524.721 86.4406C523.806 85.7446 520.162 84.9826 518.504 84.4986C513.646 83.0796 508.772 81.7116 503.896 80.3526C489.638 76.3776 475.357 72.4906 461.068 68.6276C446.844 64.7816 432.613 60.9596 418.368 57.1966C413.556 55.9256 408.741 54.6556 403.919 53.4196C402.518 53.0606 401.117 52.7006 399.711 52.3576C399.555 53.1676 399.507 54.0416 399.393 54.8026C395.424 81.2596 392.098 107.826 388.73 134.365C386.835 149.302 384.962 164.244 383.309 179.21C382.759 184.175 382.213 189.143 381.806 194.121C381.702 195.4 380.934 199.536 381.518 200.372C381.536 200.397 381.54 200.421 381.553 200.446C382.861 200.713 384.238 201.259 385.326 201.538C390.091 202.754 394.849 204.005 399.604 205.26C414.335 209.149 429.049 213.096 443.757 217.073C458.533 221.069 473.306 225.083 488.048 229.207C492.871 230.557 497.695 231.904 502.499 233.33C503.083 233.504 503.797 233.653 504.53 233.826C504.63 232.951 504.784 232.106 504.831 231.559C507.198 204.213 511.657 176.954 515.546 149.795C517.636 135.196 519.76 120.603 521.957 106.02C522.662 101.341 523.368 96.6626 524.11 91.9906C524.381 90.2906 524.431 88.2336 525.027 86.5896ZM516.619 94.9026C514.798 99.7236 514.593 105.787 513.723 110.831C511.83 121.81 509.993 132.798 508.207 143.794C506.408 154.879 504.63 165.971 503.046 177.089C502.497 180.929 501.951 184.772 501.53 188.628C501.44 189.448 500.961 191.641 501.009 192.926C501.175 193.015 501.333 193.111 501.478 193.216C501.635 193.331 501.483 193.528 501.181 193.725C501.181 193.725 501.182 193.729 501.184 193.731C501.803 194.68 498.986 195.608 498.486 194.842C498.319 194.585 498.228 194.255 498.186 193.888C496.824 193.204 494.77 192.937 493.454 192.553C489.431 191.378 485.395 190.243 481.358 189.118C469.224 185.733 457.07 182.425 444.91 179.137C432.793 175.862 420.669 172.606 408.533 169.401C404.535 168.345 400.534 167.29 396.527 166.262C395.324 165.953 394.122 165.644 392.915 165.349C392.815 165.325 392.618 165.29 392.401 165.253C392.393 165.252 392.384 165.251 392.376 165.249C391.788 165.148 391.073 165.026 391.758 165.006C391.758 165.006 391.759 165.005 391.762 165.004C391.262 165.023 390.883 164.915 390.941 164.63C390.942 164.628 390.941 164.625 390.941 164.623C390.99 164.388 391.253 164.206 391.578 164.07C391.403 162.911 391.739 161.347 391.816 160.447C392.124 156.866 392.549 153.296 392.993 149.729C394.391 138.482 395.988 127.26 397.622 116.045C399.279 104.678 400.983 93.3156 402.757 81.9666C403.546 76.9216 403.622 70.7636 405.415 65.9386C405.43 65.9006 405.453 65.8656 405.475 65.8306C405.392 65.6946 405.357 65.5256 405.4 65.3126C405.4 65.3106 405.401 65.3086 405.401 65.3056C405.542 64.6096 406.327 64.1636 407 64.1436C408.674 64.0916 410.585 64.8886 412.18 65.2966C416.233 66.3336 420.28 67.3976 424.325 68.4656C436.703 71.7346 449.069 75.0506 461.427 78.3946C473.831 81.7486 486.233 85.1186 498.608 88.5786C502.695 89.7216 506.781 90.8626 510.85 92.0676C512.312 92.5006 514.464 92.7716 515.731 93.7026C516.031 93.9226 516.127 94.1646 516.096 94.4006C516.483 94.4456 516.732 94.6026 516.619 94.9026ZM513.672 95.4626C513.609 95.4346 513.547 95.4016 513.491 95.3616C512.757 94.8226 509.685 94.1516 508.293 93.7456C504.27 92.5696 500.233 91.4356 496.197 90.3096C484.061 86.9256 471.908 83.6166 459.747 80.3296C447.63 77.0546 435.507 73.7976 423.371 70.5936C419.372 69.5366 415.372 68.4826 411.366 67.4546C410.241 67.1666 409.117 66.8786 407.99 66.6006C406.608 71.0296 406.473 76.3946 405.775 80.8616C404.065 91.7976 402.414 102.743 400.814 113.695C399.19 124.818 397.589 135.947 396.178 147.099C395.69 150.963 395.201 154.829 394.84 158.708C394.74 159.772 394.068 163.06 394.564 163.812C394.587 163.849 394.599 163.885 394.615 163.922C395.781 164.16 396.969 164.594 398.03 164.865C402.083 165.901 406.129 166.965 410.174 168.033C422.552 171.303 434.918 174.619 447.277 177.962C459.681 181.316 472.082 184.686 484.457 188.147C488.544 189.29 492.633 190.431 496.701 191.636C497.161 191.772 497.702 191.893 498.262 192.024C498.344 191.403 498.452 190.817 498.495 190.39C498.882 186.58 499.402 182.786 499.939 178.995C501.538 167.701 503.327 156.434 505.155 145.176C506.993 133.847 508.879 122.525 510.832 111.215C511.692 106.232 511.907 100.257 513.672 95.4626ZM483.98 198.666C484.142 198.637 484.18 198.666 483.98 198.666V198.666ZM482.899 199.374C483.286 198.86 483.753 198.706 483.98 198.666C483.829 198.665 483.542 198.647 483.061 198.573C481.966 198.402 480.882 198.169 479.798 197.938C476.258 197.183 472.743 196.297 469.234 195.409C459.69 192.992 450.192 190.392 440.704 187.765C431.471 185.209 422.252 182.6 413.052 179.927C409.972 179.032 406.894 178.129 403.824 177.198C402.916 176.923 402.009 176.643 401.105 176.352C400.251 176.077 400.255 175.82 400.187 176.346C400.135 176.374 400.082 176.403 400.033 176.43C400.232 176.07 400.012 175.75 399 175.849C398.99 175.85 398.98 175.851 398.97 175.852C398.545 175.893 397.376 176.204 397.305 176.764C397.303 176.768 397.303 176.771 397.303 176.775C397.264 176.904 397.293 177.014 397.392 177.106C398.383 177.804 399.941 178.022 401.073 178.37C404.516 179.425 407.974 180.43 411.434 181.434C421.971 184.495 432.538 187.464 443.118 190.373C452.991 193.088 462.879 195.769 472.831 198.179C475.095 198.727 483.536 202.033 485.569 199.332C486.284 198.38 483.402 198.706 482.899 199.374ZM466.751 206.805C467.204 206.241 467.768 206.112 468.003 206.087C467.88 206.083 467.647 206.065 467.251 205.999C466.514 205.877 465.783 205.713 465.053 205.555C462.72 205.045 460.406 204.444 458.096 203.843C452.133 202.293 446.203 200.619 440.28 198.929C434.548 197.293 428.827 195.619 423.118 193.904C420.993 193.265 416.026 192.498 414.615 191.253C414.585 191.282 414.555 191.312 414.523 191.341C414.401 191.064 413.92 190.914 413.117 191.164C413.11 191.166 413.102 191.168 413.096 191.171C412.837 191.251 411.329 191.819 411.91 192.333C413.969 194.149 418.973 194.659 421.505 195.42C428.534 197.531 435.585 199.571 442.648 201.563C448.927 203.334 455.219 205.082 461.565 206.599C463.396 207.037 467.846 208.724 469.422 206.763C470.156 205.849 467.274 206.153 466.751 206.805ZM468.003 206.087C468.134 206.075 468.156 206.092 468.003 206.087V206.087Z" fill="#4A4A4A"/>
</svg>
